HIERARCHY
ROOT hip
{
	OFFSET 0.000000 0.000000 0.000000 
	CHANNELS 6 Xposition Yposition Zposition Xrotation Zrotation Yrotation
	JOINT abdomen
	{
		OFFSET 0.000000 3.402643 0.000000 
		CHANNELS 3 Xrotation Zrotation Yrotation
		JOINT chest
		{
			OFFSET 0.000000 8.438565 -0.680529 
			CHANNELS 3 Xrotation Zrotation Yrotation
			JOINT neck
			{
				OFFSET 0.000000 10.207942 -0.272212 
				CHANNELS 3 Xrotation Zrotation Yrotation
				JOINT head
				{
					OFFSET 0.000000 3.130431 0.000000 
					CHANNELS 3 Xrotation Zrotation Yrotation
					End Site
					{
						OFFSET 0.000000 3.130435 0.000000 
					}
				}
			}
			JOINT lCollar
			{
				OFFSET 3.470700 6.669187 -0.816635 
				CHANNELS 3 Yrotation Zrotation Xrotation
				JOINT lShldr
				{
					OFFSET 3.198488 0.000000 0.000000 
					CHANNELS 3 Zrotation Yrotation Xrotation
					JOINT lForeArm
					{
						OFFSET 10.139888 0.000000 0.000000 
						CHANNELS 3 Yrotation Zrotation Xrotation
						JOINT lHand
						{
							OFFSET 8.370511 0.000000 0.000000 
							CHANNELS 3 Zrotation Yrotation Xrotation
							End Site
							{
								OFFSET 4.083176 0.000000 0.000000 
							}
						}
					}
				}
			}
			JOINT rCollar
			{
				OFFSET -3.470700 6.669187 -0.816635 
				CHANNELS 3 Yrotation Zrotation Xrotation
				JOINT rShldr
				{
					OFFSET -3.198488 0.000000 0.000000 
					CHANNELS 3 Zrotation Yrotation Xrotation
					JOINT rForeArm
					{
						OFFSET -10.139888 0.000000 0.000000 
						CHANNELS 3 Yrotation Zrotation Xrotation
						JOINT rHand
						{
							OFFSET -8.370511 0.000000 0.000000 
							CHANNELS 3 Zrotation Yrotation Xrotation
							End Site
							{
								OFFSET -4.083176 0.000000 0.000000 
							}
						}
					}
				}
			}
		}
	}
	JOINT lThigh
	{
		OFFSET 5.308129 -1.633274 1.361059 
		CHANNELS 3 Xrotation Zrotation Yrotation
		JOINT lShin
		{
			OFFSET -2.041588 -20.007561 0.000000 
			CHANNELS 3 Xrotation Zrotation Yrotation
			JOINT lFoot
			{
				OFFSET 0.000000 -19.190928 -1.224953 
				CHANNELS 3 Xrotation Yrotation Zrotation
				End Site
				{
					OFFSET 0.000000 -2.449906 4.627600 
				}
			}
		}
	}
	JOINT rThigh
	{
		OFFSET -5.308129 -1.633274 1.361059 
		CHANNELS 3 Xrotation Zrotation Yrotation
		JOINT rShin
		{
			OFFSET 2.041588 -20.007561 0.000000 
			CHANNELS 3 Xrotation Zrotation Yrotation
			JOINT rFoot
			{
				OFFSET 0.000000 -19.190928 -1.224953 
				CHANNELS 3 Xrotation Yrotation Zrotation
				End Site
				{
					OFFSET 0.000000 -2.449906 4.627600 
				}
			}
		}
	}
}
MOTION
Frames: 10
Frame Time: 0.016667
0.559786 44.081173 -0.322616 7.346250 3.302800 3.023640 -17.873400 1.976400 -3.148200 19.833599 1.913910 -1.244840 24.456400 0.723522 -0.211514 14.967200 5.587160 -0.167732 2.000000 -2.000000 0.000000 102.398003 -165.089005 -3.412090 19.951401 -0.343359 0.046712 0.050283 0.032447 -121.667999 -2.000000 2.000000 0.000000 -106.007004 -178.320999 8.003830 -123.106003 0.145508 0.096589 -0.173140 0.164688 148.147003 -2.792527 -4.535154 5.272462 15.123346 2.829967 1.229338 -15.466180 25.943865 8.726723 -20.965311 -1.272420 27.740358 20.439985 -2.776100 -1.644484 -12.855829 -30.616268 -8.231739 
0.367938 44.141663 0.038502 7.269700 3.526190 2.627610 -17.892200 2.059250 -3.288720 19.970400 1.982320 -1.299570 24.679899 0.629582 -0.073825 15.054700 5.546980 -0.088491 2.000000 -2.000000 0.000000 102.632004 -165.384995 -2.328790 20.595900 -0.342826 0.048154 0.049839 0.030782 -122.282997 -2.000000 2.000000 0.000000 -106.007004 -178.145996 7.612790 -123.154999 0.145417 0.096530 -0.174012 0.155155 147.824005 -2.701723 -4.477983 5.734213 15.875049 2.906850 1.257615 -13.696486 26.195534 7.922869 -20.639542 -1.250745 27.389473 20.469593 -2.769456 -1.623492 -12.605526 -30.023691 -7.948465 
0.148352 44.194431 0.398592 7.114770 3.730900 2.223440 -17.901501 2.109470 -3.377220 20.038799 1.982340 -1.326500 24.889200 0.646289 0.037327 15.133200 5.545330 -0.022347 2.000000 -2.000000 0.000000 102.896004 -165.669998 -1.606790 21.318600 -0.342209 0.049764 0.049380 0.028980 -122.946999 -2.000000 2.000000 0.000000 -105.939003 -177.794998 7.309220 -123.194000 0.145345 0.096482 -0.174250 0.155217 147.735992 -2.603530 -4.313338 6.043432 16.807882 2.976620 1.322990 -13.077146 25.932823 7.527054 -20.260767 -1.119903 27.193815 20.588326 -2.771422 -1.641519 -12.438117 -29.591183 -7.718292 
-0.071236 44.247196 0.758681 6.959850 3.935720 1.818160 -17.901100 2.163270 -3.456080 20.107100 1.992130 -1.353510 25.089300 0.671380 0.142400 15.211500 5.534100 0.032143 2.000000 -2.000000 0.000000 103.160004 -165.945007 -0.874999 22.041300 -0.341572 0.051367 0.048947 0.027200 -123.600998 -2.000000 2.000000 0.000000 -105.870003 -177.434998 6.995860 -123.223000 0.145291 0.096447 -0.174488 0.155279 147.649002 -2.514267 -4.153754 6.363602 17.728426 3.050642 1.360533 -12.437328 25.659647 7.132559 -19.860859 -1.016073 26.994610 20.668093 -2.763736 -1.639013 -12.254278 -29.178541 -7.483037 
-0.300257 44.310768 1.109229 6.766130 4.179770 1.423290 -17.879499 2.099050 -3.515840 20.156000 1.865190 -1.389990 25.298901 0.827323 0.168541 15.320000 5.560550 0.048212 2.000000 -2.000000 0.000000 103.473000 -166.257996 -0.533927 22.754200 -0.340924 0.052939 0.048602 0.025708 -124.148003 -2.000000 2.000000 0.000000 -105.713997 -177.199997 6.995300 -123.154999 0.145417 0.096530 -0.173800 0.155099 147.903000 -2.620446 -3.954046 6.490873 19.049349 3.106143 1.440754 -12.639898 25.251659 7.066882 -19.449816 -1.026007 26.674429 20.903185 -2.776597 -1.647387 -12.646425 -28.332548 -7.402973 
-0.529281 44.374352 1.459778 6.582280 4.433590 1.029380 -17.857800 2.034830 -3.575990 20.195101 1.748010 -1.427040 25.498400 0.974870 0.200776 15.428500 5.586950 0.064384 2.000000 -2.000000 0.000000 103.785004 -166.572006 -0.192856 23.467100 -0.340256 0.054504 0.048276 0.024239 -124.684998 -2.000000 2.000000 0.000000 -105.556999 -176.955994 6.994720 -123.085999 0.145544 0.096613 -0.173087 0.164674 148.166000 -2.679481 -3.744205 6.623110 20.252432 3.140272 1.490844 -12.787429 24.831821 7.043245 -19.087473 -0.990405 26.354851 21.147125 -2.800422 -1.667410 -12.993361 -27.460033 -7.347736 
-0.752081 44.391853 1.798534 6.329680 4.668760 0.635153 -17.765600 1.907160 -3.693850 20.263599 1.562480 -1.492360 25.532000 1.360820 0.378541 15.471200 5.739240 0.148838 2.000000 -2.000000 0.000000 104.039001 -166.824005 -0.740319 24.072500 -0.339674 0.055826 0.047752 0.021723 -125.602997 -2.000000 2.000000 0.000000 -105.528000 -176.837997 7.443650 -123.046997 0.145617 0.096660 -0.171663 0.164283 148.694000 -2.955865 -3.517873 7.207073 21.974529 3.142914 1.599013 -11.186593 24.451330 6.266676 -18.688517 -1.004156 25.858913 21.384315 -2.799510 -1.683171 -13.132645 -26.634735 -7.155958 
-0.974879 44.409359 2.137301 6.077020 4.904060 0.248610 -17.683201 1.773380 -3.800010 20.341700 1.376940 -1.567660 25.566099 1.738450 0.562185 15.504100 5.891700 0.221772 2.000000 -2.000000 0.000000 104.292999 -167.076996 -1.287780 24.677999 -0.339078 0.057142 0.047268 0.019198 -126.521004 -2.000000 2.000000 0.000000 -105.499001 -176.720001 7.882830 -123.008003 0.145689 0.096707 -0.170216 0.163872 149.231003 -3.281551 -3.280013 7.805390 23.792660 3.153366 1.736361 -9.596471 24.046364 5.511596 -18.351782 -0.969606 25.380949 21.797531 -2.813859 -1.719078 -13.349900 -25.809740 -6.944473 
-1.210456 44.413342 2.462487 5.872770 5.080760 -0.073254 -17.611200 1.655520 -3.891850 20.439400 1.210930 -1.623570 25.398899 2.077910 0.656835 15.428400 6.017930 0.258246 2.000000 -2.000000 0.000000 104.585999 -167.270996 -1.835110 25.205400 -0.338547 0.058283 0.047045 0.017960 -126.971001 -2.000000 2.000000 0.000000 74.451797 -3.184600 -171.365005 -122.890999 0.145907 0.096848 -0.168826 0.163462 149.748001 -3.927720 -2.846839 8.350206 26.117369 3.109643 1.885905 -7.976910 23.550200 4.758932 -18.054548 -0.876674 24.816019 22.063087 -2.818362 -1.725739 -13.257001 -25.226376 -6.743690 
-1.446029 44.417332 2.787660 5.668460 5.257510 -0.396376 -17.529400 1.547070 -3.986350 20.546900 1.044920 -1.679870 25.232500 2.418260 0.749485 15.352800 6.144220 0.285654 2.000000 -2.000000 0.000000 104.870003 -167.464996 -2.392200 25.732700 -0.338006 0.059419 0.046833 0.016720 -127.419998 -2.000000 2.000000 0.000000 74.402702 -3.078950 -170.613007 -122.764000 0.146144 0.097001 -0.167413 0.153266 150.276001 -4.533758 -2.416114 8.905931 28.314686 3.034941 2.056720 -6.299000 23.021521 4.059403 -17.681694 -0.825999 24.271467 22.300863 -2.811261 -1.740437 -13.215712 -24.652113 -6.521884 
